<svg width="226" height="60" viewBox="0 0 226 60" xmlns="http://www.w3.org/2000/svg"><defs><linearGradient id="a" gradientUnits="userSpaceOnUse" x1="2.4526999" y1="-1845.7305" x2="52.962898" y2="-1832.1984" gradientTransform="matrix(1 0 0 -1 0 -1815.52)"><stop offset=".2" style="stop-color:#ff5800"/><stop offset=".24" style="stop-color:#ff7000"/><stop offset=".32" style="stop-color:#ff9500"/><stop offset=".4" style="stop-color:#ffb200"/><stop offset=".47" style="stop-color:#ffc600"/><stop offset=".55" style="stop-color:#ffd300"/><stop offset=".62" style="stop-color:gold"/><stop offset=".66" style="stop-color:#ffce00"/><stop offset=".72" style="stop-color:#ffb600"/><stop offset=".81" style="stop-color:#ff8e00"/><stop offset=".9" style="stop-color:#ff5800"/></linearGradient><linearGradient id="b" gradientUnits="userSpaceOnUse" x1="4.2600002" y1="-1850.3711" x2="57.18" y2="-1850.3711" gradientTransform="matrix(1 0 0 -1 0 -1815.52)"><stop offset=".09" style="stop-color:#ff5800"/><stop offset=".19" style="stop-color:#ff7907"/><stop offset=".31" style="stop-color:#ff990e"/><stop offset=".4" style="stop-color:#ffad12"/><stop offset=".47" style="stop-color:#ffb414"/><stop offset=".53" style="stop-color:#ffad12"/><stop offset=".62" style="stop-color:#ff980e"/><stop offset=".73" style="stop-color:#ff7707"/><stop offset=".82" style="stop-color:#ff5800"/></linearGradient><linearGradient id="c" gradientUnits="userSpaceOnUse" x1="4.4874001" y1="-1842.4629" x2="58.658501" y2="-1853.9768" gradientTransform="matrix(1 0 0 -1 0 -1815.52)"><stop offset=".5" style="stop-color:#ff5800"/><stop offset=".64" style="stop-color:#ce056a;stop-opacity:.99"/><stop offset=".76" style="stop-color:#cf0768;stop-opacity:.99"/><stop offset=".81" style="stop-color:#d20d60;stop-opacity:.99"/><stop offset=".85" style="stop-color:#d81753;stop-opacity:.99"/><stop offset=".88" style="stop-color:#e12541;stop-opacity:.99"/><stop offset=".91" style="stop-color:#ec3829"/><stop offset=".94" style="stop-color:#f94e0c"/><stop offset=".95" style="stop-color:#ff5800"/></linearGradient><linearGradient id="d" gradientUnits="userSpaceOnUse" x1="6.6589999" y1="-1863.0408" x2="59.760601" y2="-1855.5806" gradientTransform="matrix(1 0 0 -1 0 -1815.52)"><stop offset="0" style="stop-color:#ff5800"/><stop offset=".06" style="stop-color:#fc5400"/><stop offset=".13" style="stop-color:#f54700"/><stop offset=".19" style="stop-color:#e83300"/><stop offset=".26" style="stop-color:#d61600"/><stop offset=".3" style="stop-color:#c80000"/><stop offset=".48" style="stop-color:#c80000"/><stop offset=".91" style="stop-color:#ff5800"/></linearGradient></defs><path class="st16" d="M79.6 24.6c-1.3 0-2.5.1-3.7.4-1 .2-2 .5-2.9 1l.3 3.6c.9-.3 1.9-.5 2.9-.6.9-.1 1.7-.2 2.6-.2 3.3 0 4.9 1.3 4.9 3.8v.8c-1.1-.2-2.1-.3-3.2-.2-2.4-.1-4.8.5-6.8 1.9-1.6 1.2-2.6 3.2-2.5 5.3 0 4.6 3.2 6.9 9.5 6.9 2.7 0 5.4-.4 8-1.2V32.8c0-5.4-3.1-8.2-9.1-8.2zm4.1 18.5c-1 .3-2.1.4-3.2.4-3 0-4.5-1.1-4.5-3.2s1.6-3.4 4.9-3.4c.9 0 1.8 0 2.7.2zM107.1 25.2h5.2l-8.2 21.5h-5l-8.2-21.5h5.5l5.3 16.6zM121.8 24.6c-1.3 0-2.5.1-3.7.4-1 .2-2 .5-2.9 1l.4 3.6c.9-.3 1.9-.5 2.9-.6.9-.1 1.7-.2 2.6-.2 3.3 0 4.9 1.2 4.9 3.8v.8c-1.1-.2-2.2-.2-3.2-.2-2.4-.1-4.8.5-6.8 1.9-1.6 1.2-2.6 3.2-2.5 5.3 0 4.6 3.2 6.9 9.5 6.9 2.7 0 5.4-.4 8-1.2V32.8c-.1-5.4-3.1-8.2-9.2-8.2zm4.2 18.5c-1 .3-2.1.4-3.2.4-3 0-4.5-1.1-4.5-3.2s1.6-3.4 4.9-3.4c.9 0 1.8 0 2.7.2zM150 34c0-2-.4-3.3-1.1-4-.7-.7-2.1-1.1-4-1.1-.6 0-1.1.1-1.6.2-.6.1-1.2.2-1.8.4v17.3h-5V26.2c1.4-.5 2.9-1 4.4-1.2 1.6-.3 3.2-.4 4.8-.4 6.3 0 9.4 2.8 9.4 8.5v13.6h-5zM167.3 24.6c-1.3 0-2.5.1-3.7.4-1 .2-2 .5-2.9 1l.4 3.6c.9-.3 1.9-.5 2.9-.6.9-.1 1.7-.2 2.6-.2 3.3 0 4.9 1.2 4.9 3.8v.8c-1.1-.2-2.1-.2-3.2-.2-2.4-.1-4.8.5-6.8 1.9-1.6 1.3-2.6 3.2-2.5 5.3 0 4.6 3.2 6.9 9.5 6.9 2.7 0 5.4-.4 8-1.2V32.8c-.1-5.4-3.2-8.2-9.2-8.2zm4.1 18.5c-1 .3-2.1.4-3.1.4-3 0-4.5-1.1-4.5-3.2s1.6-3.4 4.9-3.4c.9 0 1.8 0 2.7.2zM195 16.9v8.2c-1.2-.3-2.4-.5-3.6-.4-3-.1-5.9 1-8 3.2-2.1 2.3-3.2 5.3-3.1 8.4 0 3.6 1 6.3 3 8.2 2 1.9 4.9 2.8 8.8 2.8 2.7 0 5.3-.4 7.9-1.2V16.9Zm0 25.9c-1 .3-2 .4-3.1.3-4.3 0-6.4-2.3-6.4-7-.1-2 .5-3.9 1.6-5.5 1.2-1.3 2.9-2 4.7-1.9 1.1 0 2.2.2 3.2.5zM223.2 34.8c.1-2.7-.7-5.4-2.5-7.4-1.7-1.9-4.2-2.9-6.7-2.7-2.8-.1-5.5 1-7.4 3.1-1.8 2.1-2.7 4.9-2.7 8.4s1 6.3 2.9 8.2c1.9 1.9 4.7 2.9 8.3 2.9 2.3 0 4.6-.4 6.7-1.2l-.5-3.8c-1.9.6-3.8.9-5.8.9-4.2 0-6.4-1.9-6.5-5.7h14.1zm-14.1-1.1c.1-1.4.6-2.8 1.5-3.9.8-.9 2-1.4 3.3-1.4 1.2 0 2.4.5 3.2 1.4.9 1.1 1.3 2.5 1.2 3.9z" style="fill:#ff5800" transform="translate(-.2 -.21194821)"/><path class="st54" d="M17.7 16c-1.7 3.3-3.1 6-4.1 7.9-.9 1.7-1.8 3.3-2.9 4.8-.8 1.1-1.7 2.1-2.8 3-1.2.9-2.5 1.8-3.8 2.6L3.2 33c.9-.7 1.8-1.4 2.6-2.1.9-.9 1.8-1.9 2.5-2.9 1.1-1.6 2.1-3.3 3.1-5 1.2-2 2.6-4.8 4.3-8.3 1-2.2 2.2-4.2 3.5-6.2.9-1.4 2-2.7 3.2-3.8.9-.8 1.9-1.5 3-1.9 1.8-.8 3.8-.8 5.6.1 1.2.6 2.2 1.5 3 2.5 1.4 1.7 2.6 3.5 3.7 5.4 1.4 2.3 3 5.4 4.8 9.3 1 2.1 2.1 4.2 3.4 6.2.9 1.5 2 2.9 3.2 4.1 1.1 1.1 2.3 1.9 3.6 2.6 1.5.7 3 1.3 4.5 1.8l1.1 1.8c-1.9-.2-3.7-.6-5.5-1.2-1.6-.6-3.2-1.5-4.5-2.6-1.5-1.4-2.9-2.9-4-4.6-1.5-2.3-2.8-4.6-4-7.1-1.7-3.4-3.2-6.2-4.3-8.4-.9-1.7-2-3.4-3.2-5-.7-1-1.5-1.8-2.5-2.4-.7-.4-1.4-.6-2.2-.7-.8 0-1.6.1-2.3.5-.9.5-1.7 1.1-2.4 1.8-1 1.1-1.9 2.3-2.6 3.5-1 1.5-2 3.4-3.1 5.6z" style="fill:url(#a)" transform="translate(-.2 -.21194821)"/><path class="st55" d="M43 37.7c2.5.1 5 0 7.4-.4 2.2-.3 4.4-.8 6.5-1.5l.3 1.3c-3.5 2.2-8.2 3.1-14.3 2.9-2.4-.1-4.8-.4-7.2-1-1.8-.5-3.6-1.1-5.3-1.9-1.2-.5-2.3-1-3.4-1.6-1-.6-2.1-1.1-3.2-1.6s-2.2-.9-3.4-1.2c-1.2-.3-2.4-.5-3.6-.6-2-.1-3.9.1-5.8.4-2 .4-3.9.9-5.8 1.6l-.8-1 1.6-.8c1.6-.9 3.4-1.6 5.2-2 1.9-.5 3.8-.7 5.8-.6 1.4 0 2.8.2 4.1.6 1.2.3 2.4.8 3.5 1.3s2.2 1.1 3.4 1.7c1.2.6 2.3 1.2 3.5 1.7 1.6.7 3.3 1.3 5 1.8 2 .5 4.2.8 6.5.9z" style="fill:url(#b)" transform="translate(-.2 -.21194821)"/><path class="st56" d="M46.5 19.5c-.9 0-1.8.2-2.5.6-1.1.7-2 1.5-2.8 2.5-1.3 1.6-2.6 3.3-3.7 5-1.4 2.1-3.2 4.8-5.2 8.2-2.8 4.5-5.5 7.8-7.9 9.8-2.1 1.9-4.8 2.9-7.6 2.9-2.8-.1-5.5-1.5-7.9-4.2C6.1 41 4.2 37.2 3.2 33l2.3.4c1 3.3 2.7 6.4 4.9 9.1 2 2.3 4.1 3.4 6.3 3.5 2.3 0 4.6-1 6.3-2.6 2.8-2.6 5.1-5.6 7-8.9 2.3-3.7 4.2-6.7 5.8-9 1.2-1.9 2.6-3.7 4.1-5.4.9-1.1 2-1.9 3.3-2.6 1-.4 2.2-.6 3.3-.6 2.7.1 5 1.7 7.1 4.8 2.1 3.1 3.9 7.8 5.5 14.2l-2.4-.9c-1.1-4.1-2.7-8-4.8-11.6-1.7-2.5-3.5-3.8-5.4-3.9Z" style="fill:url(#c)" transform="translate(-.2 -.21194821)"/><path class="st57" d="M37.5 55.3c1.3 0 2.6-.4 3.7-1.2 1.8-1.5 3.3-3.1 4.6-5 1.4-1.9 2.6-3.4 3.6-4.7.9-1.2 1.8-2.3 2.7-3.3.9-1 1.7-1.8 2.5-2.7.8-.9 1.9-1.9 3.2-3.2l1.5.8c-1.2 1.3-2.2 2.5-3 3.4-.8.9-1.6 1.9-2.4 2.9-.8 1-1.6 2.1-2.6 3.3l-3.6 4.7c-1.5 2.1-3.3 4-5.3 5.7-1.5 1.1-3.2 1.6-5.1 1.6-.9 0-1.8-.2-2.7-.5-1-.4-2-1-2.8-1.7-1.3-1.1-2.6-2.3-3.7-3.6-1.4-1.6-3.2-3.6-5.4-6.1-1.7-1.9-3.2-3.5-4.5-4.8-1.2-1.2-2.6-2.2-4-3.1-1.3-.8-2.7-1.4-4.2-1.8-1.7-.5-3.4-.8-5.1-1l.6-1.8c1.8.1 3.6.4 5.4.8 1.6.3 3.1.9 4.5 1.7 1.5.9 3 1.9 4.3 3.2 1.7 1.6 3.3 3.3 4.8 5 2.2 2.5 4 4.5 5.4 6 1.4 1.5 2.5 2.6 3.4 3.4.7.6 1.5 1.2 2.3 1.6.6.3 1.2.4 1.9.4z" style="fill:url(#d)" transform="translate(-.2 -.21194821)"/></svg>