<svg xmlns="http://www.w3.org/2000/svg" viewBox="0 0 210.22 111.5"><defs><style>.cls-1{fill:#041e42}.cls-2{fill:#0047bb}</style></defs><g id="Layer_1" data-name="Layer 1"><path class="cls-1" d="M101.53 41.72a23.86 23.86 0 0 0-8-10.41 22 22 0 0 0-13.31-4 23.6 23.6 0 0 0-8.1 1.23 32.16 32.16 0 0 0-6.29 3.26V5.18L54.16-.07v80.64l.31.13a55.91 55.91 0 0 0 20.53 4 32.78 32.78 0 0 0 15.17-3.41 24.35 24.35 0 0 0 10.34-10.06 32.39 32.39 0 0 0 3.67-15.82 35.85 35.85 0 0 0-2.65-13.69Zm-9.12 14.15a19.4 19.4 0 0 1-4.28 12.69c-2.82 3.44-6.75 5.14-11.7 5.14a37.67 37.67 0 0 1-10.65-1.56V43.25c4-3.43 7.94-5.17 11.75-5.17a13.81 13.81 0 0 1 8 2.32 14.56 14.56 0 0 1 5.13 6.38 22.75 22.75 0 0 1 1.75 9.09ZM110.88 91.07a12.86 12.86 0 0 1-1.94 7 11.57 11.57 0 0 1-5.71 4.52l-.72.29 8.65 8.53.32-.15c7.4-3.55 11.15-10 11.15-19.35V28.33h-11.75ZM121.32 7.2a7.2 7.2 0 0 0-4.86-1.75 6.26 6.26 0 0 0-4.8 2.06 6.83 6.83 0 0 0-1.87 4.75 6.44 6.44 0 0 0 2.09 4.89 6.9 6.9 0 0 0 4.82 1.93 6.78 6.78 0 0 0 4.71-1.79 6.53 6.53 0 0 0 2-5 6.39 6.39 0 0 0-2.09-5.09ZM155.66 52.31l-6.41-3.57a26.6 26.6 0 0 1-5-3.44 4.69 4.69 0 0 1-1.78-3.49 3.36 3.36 0 0 1 2-3.28 10.23 10.23 0 0 1 4.66-1.08c3.67 0 8.75 1.94 15.07 5.75l.76.46v-11.8l-.28-.14a54.65 54.65 0 0 0-8-3.33 28.92 28.92 0 0 0-8.4-1.06 20.87 20.87 0 0 0-12.69 3.79 12.65 12.65 0 0 0-5.22 10.76 14.47 14.47 0 0 0 2.78 8.72A29.48 29.48 0 0 0 142 58l6.57 3.83a45.88 45.88 0 0 1 4 2.54 9.19 9.19 0 0 1 2.2 2.26 4.81 4.81 0 0 1 .77 2.68A4.16 4.16 0 0 1 153 73a10.4 10.4 0 0 1-5.22 1.5c-1.71 0-4.26-.69-7.56-2.06a56.63 56.63 0 0 1-9.45-5l-.77-.5v12.8l.31.12 3.81 1.62a49.28 49.28 0 0 0 4.71 1.82 31 31 0 0 0 4.27 1 32 32 0 0 0 5.28.4A22.08 22.08 0 0 0 162 80.53a13.86 13.86 0 0 0 5.61-11.68c.02-6.35-4-11.91-11.95-16.54ZM198.25 52.31l-6.41-3.57a26.6 26.6 0 0 1-5-3.44 4.7 4.7 0 0 1-1.79-3.49 3.36 3.36 0 0 1 2-3.28 10.27 10.27 0 0 1 4.66-1.08c3.68 0 8.75 1.94 15.07 5.75l.76.46v-11.8l-.27-.14a54.71 54.71 0 0 0-8-3.33 28.87 28.87 0 0 0-8.4-1.06 20.84 20.84 0 0 0-12.68 3.79A12.63 12.63 0 0 0 173 41.88a14.47 14.47 0 0 0 2.78 8.72 29.42 29.42 0 0 0 8.79 7.4l6.58 3.83a45.88 45.88 0 0 1 4 2.54 9.14 9.14 0 0 1 2.19 2.26 4.81 4.81 0 0 1 .77 2.68 4.17 4.17 0 0 1-2.49 3.69 10.4 10.4 0 0 1-5.22 1.5c-1.72 0-4.26-.69-7.57-2.06a56.54 56.54 0 0 1-9.44-5l-.77-.5v12.8l.31.12 3.81 1.62a48.28 48.28 0 0 0 4.71 1.82 30.67 30.67 0 0 0 4.27 1 31.9 31.9 0 0 0 5.27.4 22.09 22.09 0 0 0 13.62-4.17 13.89 13.89 0 0 0 5.61-11.68c0-6.35-4.03-11.91-11.97-16.54Z" transform="translate(0 .07)"/><path class="cls-2" d="M42.92 19a126.56 126.56 0 0 1 1.34-13.81l.06-.38L33.66 0l-.15.59A77.7 77.7 0 0 0 31.2 19a77.55 77.55 0 0 0 2.26 18.24l.15.59L44.29 33l-.07-.39A73.46 73.46 0 0 1 42.92 19ZM28.72 4.81 18.05 0l-.14.59A77.21 77.21 0 0 0 15.59 19a77.57 77.57 0 0 0 2.27 18.24l.15.59L28.69 33l-.08-.39A74.3 74.3 0 0 1 27.32 19a126.56 126.56 0 0 1 1.34-13.81ZM13.12 4.81 2.46 0l-.14.58A77.21 77.21 0 0 0 0 19a77.05 77.05 0 0 0 2.27 18.24l.14.59L13.09 33l-.09-.39A74.32 74.32 0 0 1 11.72 19a123.79 123.79 0 0 1 1.35-13.81Z" transform="translate(0 .07)"/></g></svg>