<svg xmlns="http://www.w3.org/2000/svg" width="128" height="40" viewBox="0 0 128 40"><g fill="none"><path fill="#3a3a3d" d="M51.504 35.158c1.823.023 3.191-.934 3.21-2.377.016-1.324-1.023-2-2.377-2.33l-2.476-.614c-3.053-.856-4.858-2.4-4.822-5.283.037-3 2.742-5.307 6.387-5.26 2.366.029 4.641.916 5.664 3.033.1291773.2538847.1921247.536288.183.821-.0477295.8935874-.7932427 1.5896352-1.688 1.576-.5279963-.0385912-1.0027208-.3358556-1.268-.794-.62140086-.972924-1.6975722-1.5600637-2.852-1.556-1.705-.02-2.843.979-2.86 2.343-.014 1.169 1.1 1.845 2.263 2.133l2.667.695c3.749.982 4.651 3.294 4.627 5.36-.042 3.39-3.325 5.416-7.088 5.369-2.89065608.079158-5.50151626-1.7177281-6.46-4.446a3.04400046 3.04400046 0 0 1-.072-.547c.04083033-.4138125.24674141-.7936972.5711866-1.0537803.32444518-.260083.74003101-.3784053 1.1528134-.3282197.669246-.0121751 1.27214451.4026191 1.5 1.032.65690371 1.4504787 2.14653965 2.3394742 3.735 2.229m26.728-5.036h-13.34c.3498331 2.9311956 2.9064221 5.0930524 5.855 4.951 1.7571789.1502518 3.477935-.5619138 4.615-1.91.5526934-.7387347 1.5744546-.9399776 2.366-.466.3360871.2531211.5575801.6296252.6155582 1.0463546.0579781.4167293-.0523291.8393957-.3065582 1.1746454-1.8043928 2.2199866-4.5483304 3.4613711-7.407 3.351-5.158 0-9.269-3.782-9.269-9.55-.1239211-2.5088203.8071912-4.9551102 2.5679046-6.7465967S68.1164094 19.2095625 70.627 19.29c5.158 0 9.0000177 3.664 9.0000177 9.432.0018558.3718743-.1450421.7290593-.4080003.9920174-.2629581.2629582-.6201431.4098561-.9920174.4079826zm-2.094-2.767c-.2423969-2.8327301-2.6658692-4.9763171-5.507-4.871-2.8985432-.1453254-5.4112088 1.9865006-5.74 4.87zm16.596 7.488c1.2367915.0085671 2.4447716-.3732134 3.452-1.091.7405908-.6041299 1.8213603-.536609 2.481.155.3201586.357299.4805843.8298094.4441498 1.3081781-.0364346.4783687-.2665714.9211323-.6371498 1.2258219-1.6676628 1.209712-3.6798839 1.8515894-5.74 1.831-3.4138423.0350433-6.5834651-1.7661325-8.3005825-4.7169045-1.7171173-2.9507719-1.7171173-6.5964191 0-9.547191C86.1475349 21.0591325 89.3171577 19.2579567 92.731 19.293c2.05622.0047586 4.0607066.6449788 5.739 1.833.3709724.3043817.6014871.7471096.6381176 1.2255727.0366306.478463-.1238032.9511216-.4441176 1.3084273-.6768675.6544908-1.7289637.7201938-2.482.155-1.0061639-.7197327-2.2139359-1.1033079-3.451-1.096-2.18376-.0280517-4.2137491 1.1208987-5.3138072 3.0075536-1.1000582 1.886655-1.1000582 4.2192378 0 6.1058928C88.5172509 33.7191013 90.54724 34.8680517 92.731 34.84m19.484 0c1.2365328.0089023 2.4442955-.3729201 3.451-1.091.7409151-.60426 1.82202-.5367453 2.482.155.3204306.3571758.4810355.8297537.4445942 1.308212-.0364414.4784583-.2667656.9212613-.6375942 1.225788-1.6677598 1.2095202-3.6799159 1.851377-5.74 1.831-3.4138423.0350433-6.5834651-1.7661325-8.3005825-4.7169045-1.7171173-2.9507719-1.7171173-6.5964191 0-9.547191 1.7171174-2.950772 4.8867402-4.7519478 8.3005825-4.7169045 2.0565103.0048789 4.0612803.6450781 5.74 1.833.3709724.3043817.6014871.7471096.6381176 1.2255727.0366306.478463-.1238032.9511216-.4441176 1.3084273-.6774356.6526661-1.7277236.7191025-2.482.157-1.0059362-.7198451-2.2140705-1.1024851-3.451-1.093-2.18376-.0280517-4.2137491 1.1208987-5.3138072 3.0075536-1.1000582 1.886655-1.1000582 4.2192378 0 6.1058928C108.0022509 33.7191013 110.03224 34.8680517 112.216 34.84m14.414 1.664c0 .9745064-.7899936 1.7645-1.7645 1.7645s-1.7645-.7899936-1.7645-1.7645v-24.9c-.0152468-.6404095.3176906-1.23880644.8698998-1.56349358.5522093-.32468713 1.2369911-.32468713 1.7892004 0 .5522092.32468714.8851466.92308408.8698998 1.56349358z"/><path fill="#4bbcdf" d="M14.662 38.296c-1.7557467-.0004898-3.49815051-.3049875-5.15-.9-2.80852438-1.0087041-5.26410069-2.8105254-7.069-5.187-.98973158-1.3069924-.73967528-3.16767924.56-4.167.62308347-.47838087 1.41137206-.68820037 2.18982321-.58286725S6.67545534 27.97623313 7.149 28.603c.73846649.9743061 1.65919113 1.7958601 2.711 2.419a9.48699695 9.48699695 0 0 0 1.643.774c1.1594546.4160764 2.3896239.5992425 3.62.539a9.50000516 9.50000516 0 0 0 1.9-.289 9.60999997 9.60999997 0 0 0 1.8-.664c2.2196331-1.0985563 3.9243645-3.01812762 4.753-5.352a9.55899701 9.55899701 0 0 0 .445-1.78 9.41600482 9.41600482 0 0 0 .092-1.859c-.0535899-1.05589848.4602062-2.06017878 1.3478461-2.6345382.88764-.57435942 2.0142703-.6315391 2.9555001-.15.9412299.48153909 1.554064 1.42863971 1.6076538 2.4845382.1943157 4.03084993-1.1903822 7.9786738-3.86 11.005-2.7389736 3.1002991-6.6123338 4.965237-10.744 5.173-.252.012-.5.019-.754.019"/><path fill="#7ac6c8" d="M1.171 16.701C.09922019 9.89741014 3.97252793 3.28153781 10.43.886c1.7645376-.65322685 3.6409518-.95061181 5.521-.875 2.7907034.10915274 5.4889392 1.03011164 7.764 2.65a14.31399936 14.31399936 0 0 1 2.14 1.867c1.1192208 1.19593079 1.0652157 3.07048774-.121 4.2-.5692854.54080192-1.3307962.83214665-2.1156762.80943187S22.0900567 9.17981996 21.553 8.607c-.7583376-.807135-1.6683536-1.45685512-2.678-1.912-.9948666-.44835301-2.0666477-.7012757-3.157-.745-1.104507-.04330747-2.2067505.13099923-3.244.513-1.082121.40234939-2.071888 1.01899803-2.91 1.813a8.5000004 8.5000004 0 0 0-1.09 1.261c-.94913086 1.3521471-1.48832742 2.9492521-1.553 4.6a8.5379997 8.5379997 0 0 0 .093 1.643c.25480933 1.6183979-.8490332 3.1374677-2.467 3.395-.15213381.0241984-.30595389.0362365-.46.0360034-1.45705342-.0055683-2.69366324-1.0700027-2.916-2.5100034z"/></g></svg>